<svg width="66" height="68" viewBox="0 0 66 68" fill="none" xmlns="http://www.w3.org/2000/svg">
<path d="M60.5 34.0001C60.5 49.6482 48.1878 62.3334 33 62.3334M60.5 34.0001C60.5 18.352 48.1878 5.66675 33 5.66675M60.5 34.0001H5.5M33 62.3334C17.8122 62.3334 5.5 49.6482 5.5 34.0001M33 62.3334C39.8785 54.5748 43.7876 44.506 44 34.0001C43.7876 23.4942 39.8785 13.4254 33 5.66675M33 62.3334C26.1215 54.5748 22.2124 44.506 22 34.0001C22.2124 23.4942 26.1215 13.4254 33 5.66675M5.5 34.0001C5.5 18.352 17.8122 5.66675 33 5.66675" stroke="#1E1E1E" stroke-width="4" stroke-linecap="round" stroke-linejoin="round"/>
</svg>
